<svg xmlns="http://www.w3.org/2000/svg" viewBox="0 0 100 100">
  <!-- Background -->
  <rect x="2" y="2" width="96" height="96" rx="10" fill="#FFF9C4" stroke="#5A4600" stroke-width="3"/>
  <!-- Fold shadow -->
  <polygon points="75,2 98,2 98,25" fill="#D4B840"/>
  <!-- Fold face -->
  <polygon points="75,2 75,25 98,25" fill="#E6CC50" stroke="#5A4600" stroke-width="1.5"/>
  <!-- Text lines -->
  <line x1="14" y1="34" x2="68" y2="34" stroke="#5A4600" stroke-width="5" stroke-linecap="round"/>
  <line x1="14" y1="48" x2="85" y2="48" stroke="#5A4600" stroke-width="5" stroke-linecap="round"/>
  <line x1="14" y1="62" x2="85" y2="62" stroke="#5A4600" stroke-width="5" stroke-linecap="round"/>
  <!-- Barcode strip -->
  <rect x="14" y="74" width="3" height="14" fill="#5A4600"/>
  <rect x="19" y="74" width="1" height="14" fill="#5A4600"/>
  <rect x="22" y="74" width="3" height="14" fill="#5A4600"/>
  <rect x="27" y="74" width="2" height="14" fill="#5A4600"/>
  <rect x="31" y="74" width="1" height="14" fill="#5A4600"/>
  <rect x="34" y="74" width="3" height="14" fill="#5A4600"/>
  <rect x="39" y="74" width="1" height="14" fill="#5A4600"/>
  <rect x="42" y="74" width="2" height="14" fill="#5A4600"/>
  <rect x="46" y="74" width="3" height="14" fill="#5A4600"/>
  <rect x="51" y="74" width="1" height="14" fill="#5A4600"/>
  <rect x="54" y="74" width="3" height="14" fill="#5A4600"/>
  <rect x="59" y="74" width="2" height="14" fill="#5A4600"/>
  <rect x="63" y="74" width="1" height="14" fill="#5A4600"/>
  <rect x="66" y="74" width="3" height="14" fill="#5A4600"/>
  <rect x="71" y="74" width="2" height="14" fill="#5A4600"/>
  <rect x="75" y="74" width="1" height="14" fill="#5A4600"/>
  <rect x="78" y="74" width="3" height="14" fill="#5A4600"/>
  <rect x="83" y="74" width="2" height="14" fill="#5A4600"/>
</svg>
