<svg xmlns="http://www.w3.org/2000/svg" viewBox="0 0 100 100">
  <rect x="0" y="0" width="100" height="100" fill="#FFD600"/>
  <polygon points="72,0 100,0 100,28" fill="#E5BE00"/>
  <line x1="72" y1="0" x2="100" y2="28" stroke="#FFD600" stroke-width="1.5"/>
  <rect x="12" y="38" width="50" height="5" rx="2.5" fill="#333"/>
  <rect x="12" y="50" width="68" height="5" rx="2.5" fill="#333"/>
  <rect x="12" y="62" width="60" height="5" rx="2.5" fill="#333"/>
  <rect x="12" y="76" width="3" height="12" fill="#333"/>
  <rect x="17" y="76" width="1" height="12" fill="#333"/>
  <rect x="20" y="76" width="3" height="12" fill="#333"/>
  <rect x="25" y="76" width="2" height="12" fill="#333"/>
  <rect x="29" y="76" width="1" height="12" fill="#333"/>
  <rect x="32" y="76" width="3" height="12" fill="#333"/>
  <rect x="37" y="76" width="1" height="12" fill="#333"/>
  <rect x="40" y="76" width="2" height="12" fill="#333"/>
  <rect x="44" y="76" width="3" height="12" fill="#333"/>
  <rect x="49" y="76" width="1" height="12" fill="#333"/>
  <rect x="52" y="76" width="3" height="12" fill="#333"/>
  <rect x="57" y="76" width="2" height="12" fill="#333"/>
  <rect x="61" y="76" width="1" height="12" fill="#333"/>
  <rect x="64" y="76" width="3" height="12" fill="#333"/>
  <rect x="69" y="76" width="2" height="12" fill="#333"/>
  <rect x="73" y="76" width="1" height="12" fill="#333"/>
  <rect x="76" y="76" width="3" height="12" fill="#333"/>
  <rect x="81" y="76" width="2" height="12" fill="#333"/>
</svg>
